<svg width="35" height="36" viewBox="0 0 35 36" fill="none" xmlns="http://www.w3.org/2000/svg">
<path d="M17.5 36C15.092 36 12.8758 34.7525 11.5759 32.7093C11.0992 32.8112 10.6164 32.8621 10.1335 32.8621C8.2393 32.8621 6.46268 32.1047 5.12558 30.7298C3.42324 28.9795 2.71135 26.4908 3.20039 24.0912C1.2133 22.7482 0 20.476 0 18C0 15.524 1.2133 13.2454 3.20039 11.9088C2.71755 9.51556 3.42324 7.02051 5.12558 5.27016C6.46268 3.89533 8.24549 3.13791 10.1335 3.13791C10.6226 3.13791 11.1054 3.18883 11.5759 3.29066C12.882 1.24752 15.092 0 17.5 0C19.908 0 22.1242 1.24752 23.4241 3.29066C23.9008 3.18883 24.3836 3.13791 24.8665 3.13791C26.7607 3.13791 28.5373 3.89533 29.8744 5.27016C31.5768 7.02051 32.2886 9.50919 31.7996 11.9088C33.7867 13.2518 35 15.524 35 18C35 20.476 33.7867 22.7546 31.7996 24.0912C32.2825 26.4844 31.5768 28.9795 29.8744 30.7298C28.5373 32.1047 26.7545 32.8621 24.8665 32.8621C24.3774 32.8621 23.8946 32.8112 23.4241 32.7093C22.118 34.7525 19.908 36 17.5 36Z" fill="#FFF7DF"/>
<path d="M28.25 18C28.25 11.9809 23.4873 7 17.5 7C11.5127 7 6.75 11.9809 6.75 18C6.75 24.0191 11.5127 29 17.5 29C23.4873 29 28.25 24.0191 28.25 18Z" fill="#FF9933" stroke="#FFCC33" stroke-width="4"/>
</svg>
