<svg width="106" height="103" viewBox="0 0 106 103" fill="none" xmlns="http://www.w3.org/2000/svg">
<path d="M4.56202 49.61L3.21832 51L4.56202 52.39C11.2444 59.3029 21.1817 64.1934 29.6181 64.9091C33.8445 65.2677 37.9505 64.5958 41.049 62.2981C44.2308 59.9385 46 56.1283 46 51C46 45.8717 44.2309 42.0615 41.049 39.7019C37.9506 37.4042 33.8445 36.7323 29.6181 37.0909C21.1817 37.8066 11.2444 42.6971 4.56202 49.61Z" fill="#4D4DFF" stroke="#F0F0F0" stroke-width="4"/>
<path d="M54.3507 4.52504L53 3.28805L51.6493 4.52504C44.7308 10.8609 39.8128 20.3047 39.0917 28.3568C38.7299 32.3975 39.4086 36.3384 41.7335 39.3085C44.108 42.3419 47.9112 44 53 44C58.0888 44 61.892 42.3419 64.2665 39.3085C66.5914 36.3384 67.2701 32.3975 66.9083 28.3568C66.1872 20.3047 61.2692 10.8609 54.3507 4.52504Z" fill="#4D4DFF" stroke="#F0F0F0" stroke-width="4"/>
<path d="M5.17294 28.2903L3.38127 29.1041L4.16584 30.9087C7.38786 38.3199 13.8239 45.1217 20.3528 48.2205C23.6247 49.7735 27.147 50.5 30.3813 49.6231C33.7181 48.7184 36.3496 46.218 37.9427 42.1617C39.535 38.1072 39.3012 34.5008 37.423 31.6108C35.6079 28.818 32.4818 27.0467 28.9966 26.0563C22.0343 24.078 12.6173 24.9092 5.17294 28.2903Z" fill="#4D4DFF" stroke="#F0F0F0" stroke-width="4"/>
<path d="M18.971 16.0052L17.038 16.038L17.0052 17.971C16.8468 27.3164 20.3152 37.5095 25.6253 43.8041C28.2857 46.9577 31.5773 49.3262 35.3008 49.8788C39.127 50.4466 42.9747 49.0357 46.5052 45.5052C50.0357 41.9747 51.4466 38.127 50.8788 34.3008C50.3262 30.5773 47.9577 27.2857 44.8041 24.6253C38.5095 19.3152 28.3164 15.8468 18.971 16.0052Z" fill="#4D4DFF" stroke="#F0F0F0" stroke-width="4"/>
<path d="M101.438 49.61L102.782 51L101.438 52.39C94.7556 59.3029 84.8183 64.1934 76.3819 64.9091C72.1555 65.2677 68.0495 64.5958 64.951 62.2981C61.7692 59.9385 60 56.1283 60 51C60 45.8717 61.7691 42.0615 64.951 39.7019C68.0494 37.4042 72.1555 36.7323 76.3819 37.0909C84.8183 37.8066 94.7556 42.6971 101.438 49.61Z" fill="#4D4DFF" stroke="#F0F0F0" stroke-width="4"/>
<path d="M100.827 28.2903L102.619 29.1041L101.834 30.9087C98.6121 38.3199 92.1761 45.1217 85.6472 48.2205C82.3753 49.7735 78.853 50.5 75.6187 49.6231C72.2819 48.7184 69.6504 46.218 68.0573 42.1617C66.465 38.1072 66.6988 34.5008 68.577 31.6108C70.3921 28.818 73.5182 27.0467 77.0034 26.0563C83.9657 24.078 93.3827 24.9092 100.827 28.2903Z" fill="#4D4DFF" stroke="#F0F0F0" stroke-width="4"/>
<path d="M86.029 16.0052L87.962 16.038L87.9948 17.971C88.1532 27.3164 84.6848 37.5095 79.3747 43.8041C76.7143 46.9577 73.4227 49.3262 69.6992 49.8788C65.873 50.4466 62.0253 49.0357 58.4948 45.5052C54.9643 41.9747 53.5534 38.127 54.1212 34.3008C54.6738 30.5773 57.0423 27.2857 60.1959 24.6253C66.4905 19.3152 76.6836 15.8468 86.029 16.0052Z" fill="#4D4DFF" stroke="#F0F0F0" stroke-width="4"/>
<path d="M54.3507 98.475L53 99.7119L51.6493 98.475C44.7308 92.1391 39.8128 82.6953 39.0917 74.6432C38.7299 70.6025 39.4086 66.6616 41.7335 63.6915C44.108 60.6581 47.9112 59 53 59C58.0888 59 61.892 60.6581 64.2665 63.6915C66.5914 66.6616 67.2701 70.6025 66.9083 74.6432C66.1872 82.6953 61.2692 92.1391 54.3507 98.475Z" fill="#4D4DFF" stroke="#F0F0F0" stroke-width="4"/>
<path d="M18.971 86.9948L17.038 86.962L17.0052 85.029C16.8468 75.6836 20.3152 65.4905 25.6253 59.1959C28.2857 56.0423 31.5773 53.6738 35.3008 53.1212C39.127 52.5534 42.9747 53.9643 46.5052 57.4948C50.0357 61.0253 51.4466 64.873 50.8788 68.6992C50.3262 72.4227 47.9577 75.7143 44.8041 78.3747C38.5095 83.6848 28.3164 87.1532 18.971 86.9948Z" fill="#4D4DFF" stroke="#F0F0F0" stroke-width="4"/>
<path d="M86.029 86.9948L87.962 86.962L87.9948 85.029C88.1532 75.6836 84.6848 65.4905 79.3747 59.1959C76.7143 56.0423 73.4227 53.6738 69.6992 53.1212C65.873 52.5534 62.0253 53.9643 58.4948 57.4948C54.9643 61.0253 53.5534 64.873 54.1212 68.6992C54.6738 72.4227 57.0423 75.7143 60.1959 78.3747C66.4905 83.6848 76.6836 87.1532 86.029 86.9948Z" fill="#4D4DFF" stroke="#F0F0F0" stroke-width="4"/>
<path d="M67 51C67 43.2714 60.7286 37 53 37C45.2714 37 39 43.2714 39 51C39 58.7286 45.2714 65 53 65C60.7286 65 67 58.7286 67 51Z" fill="#FFCC33" stroke="#F0F0F0" stroke-width="4"/>
</svg>
