<svg width="36" height="65" viewBox="0 0 36 65" fill="none" xmlns="http://www.w3.org/2000/svg">
<path d="M19.3502 4.54416L17.9789 3.25244L16.6075 4.54416C9.87517 10.8857 5.10071 20.3264 4.40114 28.3618C4.05038 32.3906 4.70712 36.3201 6.96494 39.2869C9.27904 42.3277 12.9987 44 17.9789 44C22.959 44 26.6787 42.3277 28.9928 39.2869C31.2506 36.32 31.9073 32.3906 31.5566 28.3618C30.857 20.3264 26.0826 10.8857 19.3502 4.54416Z" fill="#4D4DFF" stroke="white" stroke-width="4"/>
<path d="M17.9789 64.9998C15.5709 64.9998 13.3547 63.7522 12.0548 61.7091C11.5781 61.8109 11.0953 61.8619 10.6124 61.8619C8.71818 61.8619 6.94156 61.1044 5.60446 59.7296C3.90212 57.9792 3.19024 55.4906 3.67927 53.091C1.69218 51.748 0.478882 49.4757 0.478882 46.9998C0.478882 44.5238 1.69218 42.2452 3.67927 40.9085C3.19643 38.5153 3.90212 36.0203 5.60446 34.2699C6.94156 32.8951 8.72437 32.1377 10.6124 32.1377C11.1015 32.1377 11.5843 32.1886 12.0548 32.2904C13.3609 30.2473 15.5709 28.9998 17.9789 28.9998C20.3869 28.9998 22.603 30.2473 23.903 32.2904C24.3797 32.1886 24.8625 32.1377 25.3453 32.1377C27.2396 32.1377 29.0162 32.8951 30.3533 34.2699C32.0556 36.0203 32.7675 38.5089 32.2785 40.9085C34.2656 42.2515 35.4789 44.5238 35.4789 46.9998C35.4789 49.4757 34.2656 51.7544 32.2785 53.091C32.7613 55.4842 32.0556 57.9792 30.3533 59.7296C29.0162 61.1044 27.2334 61.8619 25.3453 61.8619C24.8563 61.8619 24.3735 61.8109 23.903 61.7091C22.5969 63.7522 20.3869 64.9998 17.9789 64.9998Z" fill="#FFF7DF"/>
<path d="M28.7289 46.9998C28.7289 40.9807 23.9662 35.9998 17.9789 35.9998C11.9916 35.9998 7.22888 40.9807 7.22888 46.9998C7.22888 53.0188 11.9916 57.9998 17.9789 57.9998C23.9662 57.9998 28.7289 53.0188 28.7289 46.9998Z" fill="#FF9933" stroke="#FFCC33" stroke-width="4"/>
</svg>
