<svg width="68" height="46" viewBox="0 0 68 46" fill="none" xmlns="http://www.w3.org/2000/svg">
<path d="M65.9947 3.97036L65.9613 2.03734L64.0282 2.00521C54.5163 1.84711 44.136 5.30916 37.7241 10.6129C34.5139 13.2683 32.0936 16.5606 31.5285 20.2951C30.9467 24.1388 32.3949 27.9932 35.9908 31.5191C39.5888 35.0471 43.4942 36.4427 47.3642 35.8796C51.1375 35.3306 54.4857 32.974 57.2002 29.8189C62.6152 23.525 66.1564 13.3264 65.9947 3.97036Z" fill="#4D4DFF" stroke="white" stroke-width="4"/>
<path d="M2.00531 3.97036L2.03873 2.03734L3.97177 2.00521C13.4837 1.84711 23.864 5.30916 30.2759 10.6129C33.4861 13.2683 35.9064 16.5606 36.4715 20.2951C37.0533 24.1388 35.6051 27.9932 32.0092 31.5191C28.4112 35.0471 24.5058 36.4427 20.6358 35.8796C16.8625 35.3306 13.5143 32.974 10.7998 29.8189C5.38485 23.525 1.84356 13.3264 2.00531 3.97036Z" fill="#4D4DFF" stroke="white" stroke-width="4"/>
<path d="M34 46C31.5232 46 29.2437 44.7525 27.9066 42.7093C27.4163 42.8112 26.9197 42.8621 26.4231 42.8621C24.4747 42.8621 22.6473 42.1047 21.272 40.7298C19.521 38.9795 18.7888 36.4908 19.2918 34.0912C17.248 32.7482 16 30.476 16 28C16 25.524 17.248 23.2454 19.2918 21.9088C18.7952 19.5156 19.521 17.0205 21.272 15.2702C22.6473 13.8953 24.4811 13.1379 26.4231 13.1379C26.9261 13.1379 27.4227 13.1888 27.9066 13.2907C29.2501 11.2475 31.5232 10 34 10C36.4768 10 38.7563 11.2475 40.0934 13.2907C40.5837 13.1888 41.0803 13.1379 41.5769 13.1379C43.5253 13.1379 45.3527 13.8953 46.728 15.2702C48.479 17.0205 49.2112 19.5092 48.7082 21.9088C50.752 23.2518 52 25.524 52 28C52 30.476 50.752 32.7546 48.7082 34.0912C49.2048 36.4844 48.479 38.9795 46.728 40.7298C45.3527 42.1047 43.5189 42.8621 41.5769 42.8621C41.0739 42.8621 40.5773 42.8112 40.0934 42.7093C38.7499 44.7525 36.4768 46 34 46Z" fill="#FFF7DF"/>
<path d="M45 28C45 21.9274 40.0726 17 34 17C27.9274 17 23 21.9274 23 28C23 34.0726 27.9274 39 34 39C40.0726 39 45 34.0726 45 28Z" fill="#FF9933" stroke="#FFCC33" stroke-width="4"/>
</svg>
