<svg width="81" height="65" viewBox="0 0 81 65" fill="none" xmlns="http://www.w3.org/2000/svg">
<path d="M42.3507 4.52504L41 3.28805L39.6492 4.52504C32.7308 10.8609 27.8127 20.3047 27.0917 28.3568C26.7298 32.3975 27.4086 36.3384 29.7335 39.3085C32.1079 42.3419 35.9111 44 41 44C46.0888 44 49.892 42.3419 52.2664 39.3085C54.5913 36.3384 55.2701 32.3975 54.9083 28.3568C54.1872 20.3047 49.2692 10.8609 42.3507 4.52504Z" fill="#4D4DFF" stroke="white" stroke-width="4"/>
<path d="M4.49235 23.064L2.55931 23.0968L2.52654 25.0298C2.362 34.7363 5.9655 45.3227 11.4768 51.8558C14.2377 55.1286 17.6465 57.5777 21.4942 58.1487C25.4446 58.7349 29.4237 57.2804 33.0833 53.6208C36.7429 49.9612 38.1974 45.9821 37.6112 42.0317C37.0402 38.1839 34.5911 34.7752 31.3183 32.0143C24.7853 26.503 14.1988 22.8995 4.49235 23.064Z" fill="#4D4DFF" stroke="white" stroke-width="4"/>
<path d="M78.5481 25.0298L78.5154 23.0968L76.5823 23.064C66.8759 22.8995 56.2894 26.503 49.7564 32.0143C46.4835 34.7752 44.0344 38.1839 43.4635 42.0317C42.8772 45.9821 44.3317 49.9612 47.9914 53.6208C51.651 57.2804 55.6301 58.7349 59.5805 58.1487C63.4282 57.5777 66.837 55.1286 69.5979 51.8558C75.1092 45.3227 78.7127 34.7363 78.5481 25.0298Z" fill="#4D4DFF" stroke="white" stroke-width="4"/>
<path d="M41 64.9998C38.5232 64.9998 36.2437 63.7522 34.9066 61.7091C34.4163 61.8109 33.9197 61.8619 33.4231 61.8619C31.4747 61.8619 29.6473 61.1044 28.272 59.7296C26.521 57.9792 25.7888 55.4906 26.2918 53.091C24.248 51.748 23 49.4757 23 46.9998C23 44.5238 24.248 42.2452 26.2918 40.9085C25.7952 38.5153 26.521 36.0203 28.272 34.2699C29.6473 32.8951 31.4811 32.1377 33.4231 32.1377C33.9261 32.1377 34.4227 32.1886 34.9066 32.2904C36.2501 30.2473 38.5232 28.9998 41 28.9998C43.4768 28.9998 45.7563 30.2473 47.0934 32.2904C47.5837 32.1886 48.0803 32.1377 48.5769 32.1377C50.5253 32.1377 52.3527 32.8951 53.728 34.2699C55.479 36.0203 56.2112 38.5089 55.7082 40.9085C57.752 42.2515 59 44.5238 59 46.9998C59 49.4757 57.752 51.7544 55.7082 53.091C56.2048 55.4842 55.479 57.9792 53.728 59.7296C52.3527 61.1044 50.5189 61.8619 48.5769 61.8619C48.0739 61.8619 47.5773 61.8109 47.0934 61.7091C45.7499 63.7522 43.4768 64.9998 41 64.9998Z" fill="#FFF7DF"/>
<path d="M52 46.9998C52 40.9272 47.0726 35.9998 41 35.9998C34.9274 35.9998 30 40.9272 30 46.9998C30 53.0723 34.9274 57.9998 41 57.9998C47.0726 57.9998 52 53.0723 52 46.9998Z" fill="#FF9933" stroke="#FFCC33" stroke-width="4"/>
</svg>
