<svg width="102" height="60" viewBox="0 0 102 60" fill="none" xmlns="http://www.w3.org/2000/svg">
<path d="M22.9826 4.12056L21.107 3.6519L20.575 5.5106C17.9039 14.8437 18.6446 26.0021 22.2772 33.739C24.097 37.6149 26.7557 40.8628 30.3246 42.4102C33.9886 43.9989 38.2086 43.6238 42.6907 41.036C47.1728 38.4483 49.6076 34.9812 50.0638 31.0137C50.5081 27.1493 49.0248 23.2228 46.578 19.7089C41.694 12.6945 32.4009 6.47384 22.9826 4.12056Z" fill="#4D4DFF" stroke="white" stroke-width="4"/>
<path d="M4.97079 34.6673L3.3131 35.6622L4.25125 37.3526C8.96198 45.8409 17.3759 53.2073 25.4154 56.1095C29.4428 57.5633 33.6194 57.9799 37.2371 56.5506C40.9514 55.083 43.6702 51.8339 45.0097 46.8347C46.3492 41.8356 45.6193 37.6623 43.1364 34.5343C40.718 31.4876 36.8927 29.76 32.6779 29.0054C24.2644 27.499 13.2946 29.6715 4.97079 34.6673Z" fill="#4D4DFF" stroke="white" stroke-width="4"/>
<path d="M78.9213 4.12056L80.797 3.6519L81.3289 5.5106C84.0001 14.8437 83.2593 26.0021 79.6267 33.739C77.8069 37.6149 75.1482 40.8628 71.5794 42.4102C67.9153 43.9989 63.6953 43.6238 59.2132 41.036C54.7311 38.4483 52.2963 34.9812 51.8401 31.0137C51.3958 27.1493 52.8792 23.2228 55.3259 19.7089C60.2099 12.6945 69.503 6.47384 78.9213 4.12056Z" fill="#4D4DFF" stroke="white" stroke-width="4"/>
<path d="M97.5024 34.6673L99.16 35.6622L98.2219 37.3526C93.5112 45.8409 85.0972 53.2073 77.0578 56.1095C73.0303 57.5633 68.8537 57.9799 65.236 56.5506C61.5217 55.083 58.803 51.8339 57.4635 46.8347C56.124 41.8356 56.8539 37.6623 59.3368 34.5343C61.7551 31.4876 65.5805 29.76 69.7953 29.0054C78.2087 27.499 89.1786 29.6715 97.5024 34.6673Z" fill="#4D4DFF" stroke="white" stroke-width="4"/>
<path d="M51 59.9998C48.5232 59.9998 46.2438 58.7522 44.9066 56.7091C44.4164 56.8109 43.9197 56.8619 43.4231 56.8619C41.4747 56.8619 39.6474 56.1044 38.2721 54.7296C36.5211 52.9792 35.7889 50.4906 36.2919 48.091C34.248 46.748 33 44.4757 33 41.9998C33 39.5238 34.248 37.2452 36.2919 35.9085C35.7952 33.5153 36.5211 31.0203 38.2721 29.2699C39.6474 27.8951 41.4811 27.1377 43.4231 27.1377C43.9261 27.1377 44.4227 27.1886 44.9066 27.2904C46.2501 25.2473 48.5232 23.9998 51 23.9998C53.4769 23.9998 55.7563 25.2473 57.0934 27.2904C57.5837 27.1886 58.0803 27.1377 58.577 27.1377C60.5253 27.1377 62.3527 27.8951 63.728 29.2699C65.479 31.0203 66.2112 33.5089 65.7082 35.9085C67.7521 37.2515 69 39.5238 69 41.9998C69 44.4757 67.7521 46.7544 65.7082 48.091C66.2048 50.4842 65.479 52.9792 63.728 54.7296C62.3527 56.1044 60.519 56.8619 58.577 56.8619C58.074 56.8619 57.5773 56.8109 57.0934 56.7091C55.7499 58.7522 53.4769 59.9998 51 59.9998Z" fill="#FFF7DF"/>
<path d="M62 41.9998C62 35.9272 57.0726 30.9998 51 30.9998C44.9275 30.9998 40 35.9272 40 41.9998C40 48.0723 44.9275 52.9998 51 52.9998C57.0726 52.9998 62 48.0723 62 41.9998Z" fill="#FF9933" stroke="#FFCC33" stroke-width="4"/>
</svg>
