<svg width="104" height="71" viewBox="0 0 104 71" fill="none" xmlns="http://www.w3.org/2000/svg">
<path d="M53.5119 4.56202L52.1218 3.21832L50.7318 4.56202C43.7519 11.3092 38.8143 21.343 38.0917 29.8596C37.7298 34.1261 38.4084 38.2683 40.7254 41.3927C43.1042 44.6006 46.9464 46.3858 52.1218 46.3858C57.2973 46.3858 61.1395 44.6006 63.5183 41.3927C65.8353 38.2682 66.5139 34.1261 66.1519 29.8596C65.4294 21.343 60.4917 11.3092 53.5119 4.56202Z" fill="#4D4DFF" stroke="white" stroke-width="4"/>
<path d="M4.56202 49.7318L3.21832 51.1218L4.56202 52.5119C11.3092 59.4917 21.343 64.4294 29.8596 65.1519C34.1261 65.5139 38.2683 64.8353 41.3927 62.5183C44.6006 60.1395 46.3858 56.2973 46.3858 51.1218C46.3858 45.9464 44.6006 42.1042 41.3927 39.7254C38.2682 37.4084 34.1261 36.7298 29.8596 37.0917C21.343 37.8143 11.3092 42.7519 4.56202 49.7318Z" fill="#4D4DFF" stroke="white" stroke-width="4"/>
<path d="M99.6816 49.7318L101.025 51.1218L99.6816 52.5119C92.9345 59.4917 82.9007 64.4294 74.384 65.1519C70.1175 65.5139 65.9754 64.8353 62.8509 62.5183C59.643 60.1395 57.8579 56.2973 57.8579 51.1218C57.8579 45.9464 59.643 42.1042 62.8509 39.7254C65.9754 37.4084 70.1175 36.7298 74.384 37.0917C82.9007 37.8143 92.9345 42.7519 99.6816 49.7318Z" fill="#4D4DFF" stroke="white" stroke-width="4"/>
<path d="M15.9712 17.0054L14.0382 17.0382L14.0054 18.9712C13.8409 28.6777 17.4444 39.2641 22.9557 45.7972C25.7166 49.07 29.1253 51.5191 32.9731 52.0901C36.9235 52.6763 40.9026 51.2218 44.5622 47.5622C48.2218 43.9026 49.6763 39.9235 49.0901 35.9731C48.5191 32.1254 46.07 28.7166 42.7972 25.9557C36.2641 20.4444 25.6777 16.8409 15.9712 17.0054Z" fill="#4D4DFF" stroke="white" stroke-width="4"/>
<path d="M88.2724 17.0054L90.2055 17.0382L90.2382 18.9712C90.4028 28.6777 86.7993 39.2641 81.288 45.7972C78.5271 49.07 75.1183 51.5191 71.2706 52.0901C67.3202 52.6763 63.3411 51.2218 59.6815 47.5622C56.0219 43.9026 54.5673 39.9235 55.1536 35.9731C55.7246 32.1254 58.1736 28.7166 61.4465 25.9557C67.9795 20.4444 78.566 16.8409 88.2724 17.0054Z" fill="#4D4DFF" stroke="white" stroke-width="4"/>
<path d="M52 71C49.5232 71 47.2437 69.7525 45.9066 67.7093C45.4163 67.8112 44.9197 67.8621 44.4231 67.8621C42.4747 67.8621 40.6473 67.1047 39.272 65.7298C37.521 63.9795 36.7888 61.4908 37.2918 59.0912C35.248 57.7482 34 55.476 34 53C34 50.524 35.248 48.2454 37.2918 46.9088C36.7952 44.5156 37.521 42.0205 39.272 40.2702C40.6473 38.8953 42.4811 38.1379 44.4231 38.1379C44.9261 38.1379 45.4227 38.1888 45.9066 38.2907C47.2501 36.2475 49.5232 35 52 35C54.4768 35 56.7563 36.2475 58.0934 38.2907C58.5837 38.1888 59.0803 38.1379 59.5769 38.1379C61.5253 38.1379 63.3527 38.8953 64.728 40.2702C66.479 42.0205 67.2112 44.5092 66.7082 46.9088C68.752 48.2518 70 50.524 70 53C70 55.476 68.752 57.7546 66.7082 59.0912C67.2048 61.4844 66.479 63.9795 64.728 65.7298C63.3527 67.1047 61.5189 67.8621 59.5769 67.8621C59.0739 67.8621 58.5773 67.8112 58.0934 67.7093C56.7499 69.7525 54.4768 71 52 71Z" fill="#FFF7DF"/>
<path d="M63 53C63 46.9274 58.0726 42 52 42C45.9274 42 41 46.9274 41 53C41 59.0726 45.9274 64 52 64C58.0726 64 63 59.0726 63 53Z" fill="#FF9933" stroke="#FFCC33" stroke-width="4"/>
</svg>
