<svg width="112" height="101" viewBox="0 0 112 101" fill="none" xmlns="http://www.w3.org/2000/svg">
<path d="M54.6313 4.54166L56 3.25716L57.3687 4.54166C64.2848 11.0325 69.1901 20.6969 69.9087 28.9203C70.269 33.0435 69.5935 37.0579 67.281 40.0855C64.913 43.1857 61.1064 44.8932 56 44.8932C50.8936 44.8932 47.087 43.1857 44.719 40.0855C42.4065 37.0579 41.731 33.0435 42.0913 28.9203C42.8099 20.6969 47.7152 11.0325 54.6313 4.54166Z" fill="#4D4DFF" stroke="#F2F0E4" stroke-width="4"/>
<path d="M107.417 55.0744L108.822 56.4855L107.417 57.8966C100.73 64.6132 90.7966 69.3545 82.377 70.0479C78.162 70.3951 74.0678 69.7455 70.9737 67.5179C67.7859 65.2228 66 61.5013 66 56.4855C66 51.4697 67.786 47.7482 70.9737 45.4531C74.0678 43.2255 78.162 42.5759 82.377 42.9231C90.7966 43.6165 100.73 48.3578 107.417 55.0744Z" fill="#4D4DFF" stroke="#F2F0E4" stroke-width="4"/>
<path d="M4.58272 57.8966L3.1777 56.4854L4.58272 55.0743C11.2701 48.3578 21.2034 43.6165 29.623 42.923C33.838 42.5758 37.9322 43.2254 41.0263 45.453C44.2141 47.7481 46 51.4696 46 56.4854C46 61.5013 44.214 65.2228 41.0263 67.5179C37.9322 69.7455 33.838 70.3951 29.623 70.0479C21.2034 69.3544 11.2701 64.6131 4.58272 57.8966Z" fill="#4D4DFF" stroke="#F2F0E4" stroke-width="4"/>
<path d="M91.6441 17.4855L93.5771 17.5182L93.6099 19.4513C93.7729 29.0645 90.2042 39.5494 84.7449 46.0209C82.0099 49.263 78.6314 51.6913 74.8157 52.2575C70.8974 52.839 66.9522 51.3957 63.3259 47.7694C59.6996 44.1432 58.2564 40.198 58.8378 36.2796C59.4041 32.464 61.8324 29.0855 65.0744 26.3505C71.5459 20.8911 82.0308 17.3225 91.6441 17.4855Z" fill="#4D4DFF" stroke="#F2F0E4" stroke-width="4"/>
<path d="M92.9028 90.9368L92.87 92.8698L90.937 92.9026C81.3237 93.0656 70.8388 89.4969 64.3673 84.0376C61.1253 81.3026 58.697 77.9241 58.1307 74.1085C57.5493 70.1901 58.9925 66.2449 62.6188 62.6186C66.2451 58.9923 70.1903 57.5491 74.1086 58.1306C77.9243 58.6968 81.3028 61.1251 84.0378 64.3671C89.4971 70.8387 93.0657 81.3236 92.9028 90.9368Z" fill="#4D4DFF" stroke="#F2F0E4" stroke-width="4"/>
<path d="M19.4514 93.6097L17.5183 93.577L17.4856 91.6439C17.3226 82.0307 20.8912 71.5458 26.3506 65.0743C29.0856 61.8322 32.4641 59.4039 36.2797 58.8377C40.1981 58.2562 44.1433 59.6995 47.7696 63.3258C51.3958 66.9521 52.8391 70.8973 52.2576 74.8156C51.6914 78.6312 49.2631 82.0098 46.021 84.7447C39.5495 90.2041 29.0646 93.7727 19.4514 93.6097Z" fill="#4D4DFF" stroke="#F2F0E4" stroke-width="4"/>
<path d="M18.1927 20.1584L18.2254 18.2254L20.1585 18.1926C29.7717 18.0296 40.2566 21.5983 46.7282 27.0576C49.9702 29.7926 52.3985 33.1711 52.9647 36.9868C53.5462 40.9051 52.1029 44.8503 48.4767 48.4766C44.8504 52.1029 40.9052 53.5461 36.9868 52.9646C33.1712 52.3984 29.7927 49.9701 27.0577 46.7281C21.5984 40.2566 18.0297 29.7716 18.1927 20.1584Z" fill="#4D4DFF" stroke="#F2F0E4" stroke-width="4"/>
<path d="M56.5 39C65.608 39 73 46.392 73 55.5C73 64.608 65.608 72 56.5 72C47.392 72 40 64.608 40 55.5C40 46.392 47.392 39 56.5 39Z" fill="#F2F0E4"/>
<path d="M56.5 43.125C63.331 43.125 68.875 48.669 68.875 55.5C68.875 62.331 63.331 67.875 56.5 67.875C49.669 67.875 44.125 62.331 44.125 55.5C44.125 48.669 49.669 43.125 56.5 43.125Z" fill="#FFCC33"/>
</svg>
