<svg width="115" height="113" viewBox="0 0 115 113" fill="none" xmlns="http://www.w3.org/2000/svg">
<path d="M110.481 57.905L111.825 56.515L110.481 55.1249C103.734 48.1451 93.6999 43.2074 85.1832 42.4849C80.9167 42.1229 76.7746 42.8015 73.6501 45.1185C70.4422 47.4973 68.6571 51.3395 68.6571 56.515C68.6571 61.6904 70.4422 65.5326 73.6501 67.9114C76.7746 70.2284 80.9167 70.907 85.1832 70.5451C93.6999 69.8225 103.734 64.8849 110.481 57.905Z" fill="#4D4DFF" stroke="#FFCC33" stroke-width="4"/>
<path d="M56.1351 108.46L57.5251 109.804L58.9151 108.46C65.895 101.713 70.8327 91.6794 71.5552 83.1628C71.9171 78.8963 71.2386 74.7542 68.9216 71.6297C66.5427 68.4218 62.7006 66.6366 57.5251 66.6366C52.3496 66.6366 48.5075 68.4218 46.1286 71.6297C43.8116 74.7542 43.1331 78.8963 43.495 83.1628C44.2175 91.6794 49.1552 101.713 56.1351 108.46Z" fill="#4D4DFF" stroke="#FFCC33" stroke-width="4"/>
<path d="M4.56928 55.1249L3.22559 56.515L4.56928 57.905C11.3164 64.8849 21.3502 69.8225 29.8669 70.5451C34.1334 70.907 38.2755 70.2284 41.4 67.9114C44.6079 65.5326 46.3931 61.6904 46.3931 56.515C46.3931 51.3395 44.6079 47.4973 41.4 45.1185C38.2755 42.8015 34.1334 42.1229 29.8669 42.4849C21.3502 43.2074 11.3164 48.1451 4.56928 55.1249Z" fill="#4D4DFF" stroke="#FFCC33" stroke-width="4"/>
<path d="M58.915 4.56928L57.525 3.22558L56.135 4.56928C49.1551 11.3164 44.2174 21.3502 43.4949 29.8669C43.133 34.1334 43.8115 38.2755 46.1285 41.4C48.5074 44.6079 52.3495 46.3931 57.525 46.3931C62.7005 46.3931 66.5426 44.6079 68.9215 41.4C71.2385 38.2755 71.917 34.1334 71.5551 29.8669C70.8326 21.3502 65.8949 11.3164 58.915 4.56928Z" fill="#4D4DFF" stroke="#FFCC33" stroke-width="4"/>
<path d="M95.9533 20.0523L95.9206 18.1192L93.9875 18.0865C84.2811 17.9219 73.6946 21.5254 67.1616 27.0367C63.8887 29.7977 61.4396 33.2064 60.8687 37.0541C60.2824 41.0045 61.7369 44.9836 65.3966 48.6433C69.0562 52.3029 73.0353 53.7574 76.9857 53.1712C80.8334 52.6002 84.2422 50.1511 87.0031 46.8783C92.5144 40.3452 96.1179 29.7588 95.9533 20.0523Z" fill="#4D4DFF" stroke="#FFCC33" stroke-width="4"/>
<path d="M93.2732 94.2287L95.2063 94.196L95.2391 92.2629C95.4036 82.5564 91.8001 71.97 86.2888 65.4369C83.5279 62.1641 80.1191 59.715 76.2714 59.144C72.321 58.5578 68.3419 60.0123 64.6823 63.6719C61.0227 67.3315 59.5682 71.3107 60.1544 75.2611C60.7254 79.1088 63.1745 82.5175 66.4473 85.2785C72.9803 90.7898 83.5668 94.3933 93.2732 94.2287Z" fill="#4D4DFF" stroke="#FFCC33" stroke-width="4"/>
<path d="M19.0968 92.9773L19.1295 94.9103L21.0626 94.9431C30.769 95.1076 41.3555 91.5041 47.8886 85.9928C51.1614 83.2319 53.6105 79.8232 54.1814 75.9754C54.7677 72.025 53.3132 68.0459 49.6536 64.3863C45.9939 60.7267 42.0148 59.2722 38.0644 59.8584C34.2167 60.4294 30.808 62.8785 28.047 66.1513C22.5357 72.6844 18.9322 83.2708 19.0968 92.9773Z" fill="#4D4DFF" stroke="#FFCC33" stroke-width="4"/>
<path d="M21.7769 18.8008L19.8438 18.8336L19.8111 20.7666C19.6465 30.4731 23.25 41.0596 28.7613 47.5926C31.5222 50.8654 34.931 53.3145 38.7787 53.8855C42.7291 54.4717 46.7082 53.0172 50.3678 49.3576C54.0275 45.698 55.482 41.7189 54.8957 37.7685C54.3247 33.9208 51.8757 30.512 48.6028 27.7511C42.0698 22.2398 31.4833 18.6363 21.7769 18.8008Z" fill="#4D4DFF" stroke="#FFCC33" stroke-width="4"/>
<path d="M58 77C55.5232 77 53.2437 75.7525 51.9066 73.7093C51.4163 73.8112 50.9197 73.8621 50.4231 73.8621C48.4747 73.8621 46.6473 73.1047 45.272 71.7298C43.521 69.9795 42.7888 67.4908 43.2918 65.0912C41.248 63.7482 40 61.476 40 59C40 56.524 41.248 54.2454 43.2918 52.9088C42.7952 50.5156 43.521 48.0205 45.272 46.2702C46.6473 44.8953 48.4811 44.1379 50.4231 44.1379C50.9261 44.1379 51.4227 44.1888 51.9066 44.2907C53.2501 42.2475 55.5232 41 58 41C60.4768 41 62.7563 42.2475 64.0934 44.2907C64.5837 44.1888 65.0803 44.1379 65.5769 44.1379C67.5253 44.1379 69.3527 44.8953 70.728 46.2702C72.479 48.0205 73.2112 50.5092 72.7082 52.9088C74.752 54.2518 76 56.524 76 59C76 61.476 74.752 63.7546 72.7082 65.0912C73.2048 67.4844 72.479 69.9795 70.728 71.7298C69.3527 73.1047 67.5189 73.8621 65.5769 73.8621C65.0739 73.8621 64.5773 73.8112 64.0934 73.7093C62.7499 75.7525 60.4768 77 58 77Z" fill="#FFF7DF"/>
<path d="M69 59C69 52.9274 64.0726 48 58 48C51.9274 48 47 52.9274 47 59C47 65.0726 51.9274 70 58 70C64.0726 70 69 65.0726 69 59Z" fill="#FF9933" stroke="#FFCC33" stroke-width="4"/>
</svg>
