<svg width="100" height="98" viewBox="0 0 100 98" fill="none" xmlns="http://www.w3.org/2000/svg">
<path d="M51.4135 4.58511L50 3.17293L48.5865 4.58511C42.2283 10.9371 37.7403 20.3699 37.0835 28.3716C36.7546 32.3773 37.3682 36.2831 39.4911 39.2417C41.682 42.2951 45.2332 44 50 44C54.7668 44 58.318 42.2951 60.5089 39.2417C62.6318 36.2831 63.2454 32.3773 62.9165 28.3716C62.2597 20.3699 57.7717 10.9371 51.4135 4.58511Z" fill="#4D4DFF" stroke="white" stroke-width="4"/>
<path d="M4.57311 47.0986L3.19671 48.5L4.57311 49.9014C11.0903 56.537 20.7755 61.2265 28.9948 61.9128C33.111 62.2565 37.1171 61.6138 40.1458 59.4032C43.2635 57.1278 45 53.447 45 48.5C45 43.553 43.2635 39.8722 40.1458 37.5968C37.1171 35.3862 33.111 34.7435 28.9948 35.0872C20.7755 35.7735 11.0903 40.4629 4.57311 47.0986Z" fill="#4D4DFF" stroke="white" stroke-width="4"/>
<path d="M95.4269 47.0986L96.8033 48.5L95.4269 49.9014C88.9097 56.537 79.2245 61.2265 71.0052 61.9128C66.889 62.2565 62.8829 61.6138 59.8542 59.4032C56.7365 57.1278 55 53.447 55 48.5C55 43.553 56.7365 39.8722 59.8542 37.5968C62.8829 35.3862 66.889 34.7435 71.0052 35.0872C79.2245 35.7735 88.9097 40.4629 95.4269 47.0986Z" fill="#4D4DFF" stroke="white" stroke-width="4"/>
<path d="M18.9705 18.0047L17.0375 18.0375L17.0047 19.9705C16.8614 28.4244 19.9964 37.6467 24.8099 43.3526C27.222 46.2119 30.2246 48.3817 33.6414 48.8887C37.1609 49.411 40.6843 48.1079 43.8961 44.8961C47.1079 41.6843 48.411 38.1609 47.8887 34.6414C47.3817 31.2246 45.2119 28.222 42.3526 25.8099C36.6467 20.9964 27.4244 17.8614 18.9705 18.0047Z" fill="#4D4DFF" stroke="white" stroke-width="4"/>
<path d="M81.0295 18.0047L82.9625 18.0375L82.9953 19.9705C83.1386 28.4244 80.0036 37.6467 75.1901 43.3526C72.778 46.2119 69.7754 48.3817 66.3586 48.8887C62.8391 49.411 59.3157 48.1079 56.1039 44.8961C52.8921 41.6843 51.589 38.1609 52.1113 34.6414C52.6183 31.2246 54.7881 28.222 57.6474 25.8099C63.3533 20.9964 72.5756 17.8614 81.0295 18.0047Z" fill="#4D4DFF" stroke="white" stroke-width="4"/>
<path d="M78.5267 89.5561L78.4984 91.4985L76.556 91.5268C67.688 91.656 58.0091 88.3429 52.0206 83.2869C49.0205 80.7539 46.7527 77.6143 46.2164 74.0561C45.6643 70.3933 47.0087 66.7193 50.364 63.3641C53.7192 60.0088 57.3932 58.6644 61.056 59.2165C64.6142 59.7528 67.7538 62.0206 70.2868 65.0207C75.3428 71.0092 78.6559 80.6881 78.5267 89.5561Z" fill="#4D4DFF" stroke="white" stroke-width="4"/>
<path d="M22.749 91.5267L20.8067 91.4985L20.7784 89.5561C20.6492 80.6881 23.9623 71.0092 29.0183 65.0207C31.5512 62.0205 34.6909 59.7528 38.2491 59.2165C41.9119 58.6644 45.5859 60.0087 48.9411 63.364C52.2964 66.7193 53.6408 70.3932 53.0887 74.056C52.5523 77.6142 50.2846 80.7539 47.2845 83.2869C41.296 88.3429 31.6171 91.6559 22.749 91.5267Z" fill="#4D4DFF" stroke="white" stroke-width="4"/>
<path d="M18.9705 79.9953L17.0375 79.9625L17.0047 78.0295C16.8614 69.5756 19.9964 60.3533 24.8099 54.6474C27.222 51.7881 30.2246 49.6183 33.6414 49.1113C37.1609 48.589 40.6843 49.8921 43.8961 53.1039C47.1079 56.3157 48.411 59.8391 47.8887 63.3586C47.3817 66.7754 45.2119 69.778 42.3526 72.1901C36.6467 77.0036 27.4244 80.1386 18.9705 79.9953Z" fill="#4D4DFF" stroke="white" stroke-width="4"/>
<path d="M81.0295 79.9953L82.9625 79.9625L82.9953 78.0295C83.1386 69.5756 80.0036 60.3533 75.1901 54.6474C72.778 51.7881 69.7754 49.6183 66.3586 49.1113C62.8391 48.589 59.3157 49.8921 56.1039 53.1039C52.8921 56.3157 51.589 59.8391 52.1113 63.3586C52.6183 66.7754 54.7881 69.778 57.6474 72.1901C63.3533 77.0036 72.5756 80.1386 81.0295 79.9953Z" fill="#4D4DFF" stroke="white" stroke-width="4"/>
<path d="M50 67C47.5232 67 45.2437 65.7525 43.9066 63.7093C43.4163 63.8112 42.9197 63.8621 42.4231 63.8621C40.4747 63.8621 38.6473 63.1047 37.272 61.7298C35.521 59.9795 34.7888 57.4908 35.2918 55.0912C33.248 53.7482 32 51.476 32 49C32 46.524 33.248 44.2454 35.2918 42.9088C34.7952 40.5156 35.521 38.0205 37.272 36.2702C38.6473 34.8953 40.4811 34.1379 42.4231 34.1379C42.9261 34.1379 43.4227 34.1888 43.9066 34.2907C45.2501 32.2475 47.5232 31 50 31C52.4768 31 54.7563 32.2475 56.0934 34.2907C56.5837 34.1888 57.0803 34.1379 57.5769 34.1379C59.5253 34.1379 61.3527 34.8953 62.728 36.2702C64.479 38.0205 65.2112 40.5092 64.7082 42.9088C66.752 44.2518 68 46.524 68 49C68 51.476 66.752 53.7546 64.7082 55.0912C65.2048 57.4844 64.479 59.9795 62.728 61.7298C61.3527 63.1047 59.5189 63.8621 57.5769 63.8621C57.0739 63.8621 56.5773 63.8112 56.0934 63.7093C54.7499 65.7525 52.4768 67 50 67Z" fill="#FFF7DF"/>
<path d="M61 49C61 42.9274 56.0726 38 50 38C43.9274 38 39 42.9274 39 49C39 55.0726 43.9274 60 50 60C56.0726 60 61 55.0726 61 49Z" fill="#FF9933" stroke="#FFCC33" stroke-width="4"/>
</svg>
